<?xml version="1.0" standalone="no"?>
<!DOCTYPE svg PUBLIC "-//W3C//DTD SVG 20010904//EN"
 "http://www.w3.org/TR/2001/REC-SVG-20010904/DTD/svg10.dtd">
<svg version="1.0" xmlns="http://www.w3.org/2000/svg"
 width="300.000000pt" height="300.000000pt" viewBox="0 0 300.000000 300.000000"
 preserveAspectRatio="xMidYMid meet">
<metadata>
Created by potrace 1.10, written by Peter Selinger 2001-2011
</metadata>
<g transform="translate(0.000000,300.000000) scale(0.100000,-0.100000)"
fill="#000000" stroke="none">
<path d="M1430 2905 c-8 -2 -55 -9 -105 -15 -175 -24 -358 -101 -505 -211
-103 -78 -230 -212 -273 -290 -43 -77 -103 -251 -127 -369 l-17 -85 -49 -11
c-158 -36 -278 -162 -319 -335 -40 -170 0 -491 80 -650 28 -55 82 -105 127
-117 18 -5 106 -7 196 -4 144 4 162 7 158 21 -6 20 -80 559 -101 742 -19 159
-15 190 45 392 59 194 76 233 145 337 154 231 365 380 613 432 159 33 394 16
539 -38 185 -70 362 -219 485 -408 46 -71 68 -121 104 -230 62 -190 84 -280
84 -351 0 -80 -27 -305 -85 -709 -14 -98 -24 -180 -23 -182 2 -1 80 -4 173 -6
156 -2 173 -1 210 18 111 57 187 289 189 574 1 155 -7 196 -61 304 -52 104
-172 196 -277 211 l-42 7 -23 101 c-57 251 -131 396 -276 543 -173 174 -340
262 -583 308 -81 15 -253 28 -282 21z m265 -60 c141 -25 273 -74 395 -147 110
-67 256 -217 317 -326 43 -77 104 -247 128 -357 20 -91 42 -122 94 -131 61
-12 118 -41 167 -86 59 -54 92 -107 116 -183 68 -219 -10 -650 -131 -732 -31
-21 -45 -23 -178 -23 -111 0 -145 3 -149 14 -3 7 11 130 30 272 70 517 75 570
55 666 -23 113 -93 327 -134 413 -78 160 -219 320 -371 421 -155 103 -282 142
-494 151 -241 9 -403 -34 -588 -157 -132 -87 -288 -264 -360 -407 -38 -75
-118 -324 -138 -430 -17 -94 -14 -134 52 -623 19 -140 34 -269 34 -287 l0 -33
-150 0 -149 0 -36 32 c-87 75 -150 302 -149 533 1 93 5 123 28 190 49 144 130
226 263 264 86 25 87 26 127 191 33 137 78 254 127 330 51 79 175 202 269 266
173 118 287 158 555 198 44 6 178 -3 270 -19z"/>
<path d="M1321 2619 c-325 -64 -579 -306 -712 -679 -19 -53 -24 -84 -23 -165
3 -234 128 -896 202 -1065 43 -100 329 -423 438 -495 l52 -35 210 0 209 0 76
49 c139 91 405 360 458 463 63 123 167 769 170 1056 1 131 -13 185 -86 337
-139 288 -359 472 -635 530 -78 16 -285 19 -359 4z m358 -43 c301 -70 544
-308 656 -640 32 -95 33 -219 5 -461 -50 -443 -108 -713 -172 -809 -40 -61
-273 -297 -353 -358 -117 -88 -116 -88 -328 -88 -223 0 -224 1 -338 112 -169
165 -308 342 -340 435 -83 240 -203 930 -185 1064 4 26 17 77 30 115 92 272
300 502 531 590 115 43 186 54 335 50 74 -2 146 -7 159 -10z"/>
</g>
</svg>
